<svg width="780" height="221" viewBox="0 0 780 221" fill="none" xmlns="http://www.w3.org/2000/svg">
<g clip-path="url(#clip0_1_35)">
<mask id="path-1-outside-1_1_35" maskUnits="userSpaceOnUse" x="76" y="41" width="618" height="133" fill="black">
<rect fill="white" x="76" y="41" width="618" height="133"/>
<path d="M91.5781 93.6094L86.0977 93.6992C83.8815 93.6992 82.2643 93.4896 81.2461 93.0703C80.2279 92.651 79.7188 91.7826 79.7188 90.4648C79.7188 89.0872 80.2878 87.8594 81.4258 86.7812C82.6237 85.6432 83.9714 84.7747 85.4688 84.1758C89.6016 82.4987 92.0573 81.0911 92.8359 79.9531C93.6745 78.7552 94.9023 76.1797 96.5195 72.2266C100.533 62.3438 103.887 57.4023 106.582 57.4023C107.96 57.4023 108.738 58.8997 108.918 61.8945C109.158 64.8294 109.277 67.0755 109.277 68.6328C109.337 70.1901 109.337 72.526 109.277 75.6406C109.217 78.6953 109.188 80.8216 109.188 82.0195L130.57 82.1094C132.667 82.1094 134.434 82.6484 135.871 83.7266C137.309 84.7448 138.027 86.1224 138.027 87.8594C138.027 89.5964 137.309 90.944 135.871 91.9023C134.493 92.8607 132.757 93.3398 130.66 93.3398H109.188L109.098 139.25C109.098 152.247 112.362 158.746 118.891 158.746C120.688 158.746 123.353 158.207 126.887 157.129C130.421 155.991 132.727 155.422 133.805 155.422C136.26 155.422 137.488 156.829 137.488 159.645C137.488 161.861 134.583 164.077 128.773 166.293C123.023 168.509 117.094 169.617 110.984 169.617C104.935 169.617 100.173 167.251 96.6992 162.52C93.2852 157.788 91.5781 151.559 91.5781 143.832V93.6094ZM166.957 111.039C164.741 111.039 162.225 110.171 159.41 108.434C156.655 106.637 155.277 104.331 155.277 101.516C155.277 98.6406 156.086 95.9453 157.703 93.4297C159.32 90.9141 161.417 88.8776 163.992 87.3203C166.568 85.7031 169.562 84.3555 172.977 83.2773C179.206 81.3008 185.914 80.3125 193.102 80.3125C205.201 80.3125 213.975 83.0078 219.426 88.3984C224.936 93.7292 227.691 102.564 227.691 114.902L227.602 141.406C227.602 147.815 228.41 151.828 230.027 153.445C230.447 153.865 231.764 154.404 233.98 155.062C240.09 156.979 243.145 158.447 243.145 159.465C243.145 165.754 236.706 168.898 223.828 168.898C218.977 168.898 215.802 167.82 214.305 165.664C212.867 163.508 212.089 159.585 211.969 153.895C209.273 158.746 205.171 162.669 199.66 165.664C194.15 168.659 188.25 170.156 181.961 170.156C175.672 170.156 170.341 169.348 165.969 167.73C161.596 166.113 158.033 163.508 155.277 159.914C152.582 156.26 151.234 152.337 151.234 148.145C151.234 143.952 151.714 140.598 152.672 138.082C153.63 135.507 154.828 133.35 156.266 131.613C157.703 129.876 159.65 128.319 162.105 126.941C164.621 125.564 166.957 124.486 169.113 123.707C171.27 122.868 174.055 122.12 177.469 121.461C182.5 120.503 186.723 119.844 190.137 119.484C193.551 119.065 195.318 118.826 195.438 118.766C195.797 118.706 197.833 118.496 201.547 118.137C205.32 117.717 208.285 116.909 210.441 115.711C210.441 104.331 208.914 96.9036 205.859 93.4297C203.164 90.4349 198.732 88.9375 192.562 88.9375C186.393 88.9375 181.751 90.5247 178.637 93.6992C175.582 96.8138 174.055 101.785 174.055 108.613L174.145 110.59C171.629 110.889 169.233 111.039 166.957 111.039ZM210.441 123.797C206.368 125.294 201.757 126.342 196.605 126.941C191.514 127.48 187.501 128.139 184.566 128.918C181.632 129.697 179.176 130.655 177.199 131.793C172.647 134.428 170.371 138.951 170.371 145.359C170.371 155.661 176.361 160.812 188.34 160.812C198.702 160.812 205.26 155.871 208.016 145.988C209.633 140.358 210.441 132.961 210.441 123.797ZM278.363 168L270.637 168.09C262.79 168.09 257.939 166.892 256.082 164.496C255.243 163.418 254.824 162.13 254.824 160.633C254.824 159.076 255.423 157.997 256.621 157.398C257.819 156.799 259.137 156.47 260.574 156.41C262.072 156.35 263.419 155.901 264.617 155.062C265.815 154.164 266.414 152.757 266.414 150.84V99.5391C266.414 96.0651 264.258 93.9688 259.945 93.25C256.951 92.7708 255.124 92.2617 254.465 91.7227C253.866 91.1237 253.566 90.1055 253.566 88.668C253.566 87.1706 254.615 85.8229 256.711 84.625C260.245 82.4688 264.677 81.3906 270.008 81.3906C275.398 81.3906 278.842 82.1693 280.34 83.7266C281.897 85.224 282.676 88.6081 282.676 93.8789C290.882 84.5951 302.172 79.9531 316.547 79.9531C328.227 79.9531 336.492 83.1576 341.344 89.5664C346.255 95.9154 348.711 105.559 348.711 118.496V150.84C348.711 154.314 350.628 156.171 354.461 156.41C358.354 156.59 360.301 158.117 360.301 160.992C360.301 164.227 358.444 166.263 354.73 167.102C351.975 167.701 348.172 168 343.32 168L335.594 168.09C327.747 168.09 322.896 166.892 321.039 164.496C320.201 163.418 319.781 162.13 319.781 160.633C319.781 159.076 320.38 157.997 321.578 157.398C322.776 156.799 324.094 156.47 325.531 156.41C327.029 156.35 328.376 155.901 329.574 155.062C330.772 154.164 331.371 152.757 331.371 150.84V124.695C331.371 113.555 330.083 105.409 327.508 100.258C324.633 94.4479 318.853 91.543 310.168 91.543C299.686 91.543 292.559 94.3281 288.785 99.8984C285.251 105.169 283.484 113.585 283.484 125.145V150.84C283.484 154.314 285.401 156.171 289.234 156.41C293.128 156.59 295.074 158.117 295.074 160.992C295.074 164.286 293.247 166.323 289.594 167.102C286.958 167.701 283.215 168 278.363 168ZM386.895 111.039C384.678 111.039 382.163 110.171 379.348 108.434C376.592 106.637 375.215 104.331 375.215 101.516C375.215 98.6406 376.023 95.9453 377.641 93.4297C379.258 90.9141 381.354 88.8776 383.93 87.3203C386.505 85.7031 389.5 84.3555 392.914 83.2773C399.143 81.3008 405.852 80.3125 413.039 80.3125C425.138 80.3125 433.913 83.0078 439.363 88.3984C444.874 93.7292 447.629 102.564 447.629 114.902L447.539 141.406C447.539 147.815 448.348 151.828 449.965 153.445C450.384 153.865 451.702 154.404 453.918 155.062C460.027 156.979 463.082 158.447 463.082 159.465C463.082 165.754 456.643 168.898 443.766 168.898C438.914 168.898 435.74 167.82 434.242 165.664C432.805 163.508 432.026 159.585 431.906 153.895C429.211 158.746 425.108 162.669 419.598 165.664C414.087 168.659 408.188 170.156 401.898 170.156C395.609 170.156 390.279 169.348 385.906 167.73C381.534 166.113 377.97 163.508 375.215 159.914C372.52 156.26 371.172 152.337 371.172 148.145C371.172 143.952 371.651 140.598 372.609 138.082C373.568 135.507 374.766 133.35 376.203 131.613C377.641 129.876 379.587 128.319 382.043 126.941C384.559 125.564 386.895 124.486 389.051 123.707C391.207 122.868 393.992 122.12 397.406 121.461C402.438 120.503 406.66 119.844 410.074 119.484C413.488 119.065 415.255 118.826 415.375 118.766C415.734 118.706 417.771 118.496 421.484 118.137C425.258 117.717 428.223 116.909 430.379 115.711C430.379 104.331 428.852 96.9036 425.797 93.4297C423.102 90.4349 418.669 88.9375 412.5 88.9375C406.331 88.9375 401.689 90.5247 398.574 93.6992C395.52 96.8138 393.992 101.785 393.992 108.613L394.082 110.59C391.566 110.889 389.171 111.039 386.895 111.039ZM430.379 123.797C426.306 125.294 421.694 126.342 416.543 126.941C411.452 127.48 407.439 128.139 404.504 128.918C401.569 129.697 399.113 130.655 397.137 131.793C392.585 134.428 390.309 138.951 390.309 145.359C390.309 155.661 396.298 160.812 408.277 160.812C418.639 160.812 425.198 155.871 427.953 145.988C429.57 140.358 430.379 132.961 430.379 123.797ZM498.57 168L490.844 168.09C482.997 168.09 478.146 166.892 476.289 164.496C475.451 163.418 475.031 162.13 475.031 160.633C475.031 159.076 475.63 157.997 476.828 157.398C478.026 156.799 479.344 156.47 480.781 156.41C482.279 156.35 483.626 155.901 484.824 155.062C486.022 154.164 486.621 152.757 486.621 150.84V106.457C486.621 101.126 485.962 97.832 484.645 96.5742C483.387 95.3164 482.309 94.5078 481.41 94.1484C480.572 93.7891 479.224 93.3398 477.367 92.8008C475.51 92.2617 473.983 91.7227 472.785 91.1836C471.647 90.6445 471.078 89.8359 471.078 88.7578C471.078 83.9661 477.517 81.5703 490.395 81.5703C495.845 81.5703 499.289 82.5286 500.727 84.4453C502.224 86.3021 502.973 90.6445 502.973 97.4727C505.009 92.3216 508.363 88.2786 513.035 85.3438C517.767 82.4089 522.589 80.9414 527.5 80.9414C532.471 80.9414 536.544 82.0195 539.719 84.1758C542.953 86.2721 544.57 88.9674 544.57 92.2617C544.57 95.4961 543.522 98.1016 541.426 100.078C539.329 101.995 536.754 102.953 533.699 102.953C530.645 102.953 528.009 102.145 525.793 100.527C523.637 98.9102 522.229 96.8138 521.57 94.2383C520.013 93.9987 518.725 93.8789 517.707 93.8789C508.363 93.8789 503.691 104.63 503.691 126.133V150.84C503.691 154.314 505.608 156.171 509.441 156.41C513.335 156.59 515.281 158.117 515.281 160.992C515.281 164.286 513.484 166.323 509.891 167.102C507.135 167.701 503.362 168 498.57 168ZM563.527 55.2461C563.527 52.6107 564.785 50.1549 567.301 47.8789C569.876 45.543 572.661 44.375 575.656 44.375C578.711 44.375 581.646 45.3034 584.461 47.1602C587.336 49.0169 588.773 51.4727 588.773 54.5273C588.773 57.582 587.576 60.1576 585.18 62.2539C582.784 64.2904 579.849 65.3086 576.375 65.3086C572.901 65.3086 569.876 64.3503 567.301 62.4336C564.785 60.5169 563.527 58.1211 563.527 55.2461ZM582.305 168L574.578 168.09C566.732 168.09 561.88 166.892 560.023 164.496C559.185 163.418 558.766 162.13 558.766 160.633C558.766 159.076 559.365 157.997 560.562 157.398C561.76 156.799 563.078 156.47 564.516 156.41C566.013 156.35 567.361 155.901 568.559 155.062C569.757 154.164 570.355 152.757 570.355 150.84V102.504C570.355 97.0534 568.229 94.1185 563.977 93.6992C563.557 93.6393 563.018 93.5794 562.359 93.5195C561.701 93.4596 561.221 93.4297 560.922 93.4297C560.622 93.3698 560.233 93.3099 559.754 93.25C559.335 93.1302 559.005 93.0104 558.766 92.8906C558.586 92.7708 558.376 92.6211 558.137 92.4414C557.717 92.1419 557.508 91.3034 557.508 89.9258C557.508 88.4883 558.406 87.0208 560.203 85.5234C563.617 82.7682 568.169 81.3906 573.859 81.3906C579.13 81.3906 582.215 81.6003 583.113 82.0195C584.072 82.4388 584.88 82.888 585.539 83.3672C586.797 84.2057 587.426 85.793 587.426 88.1289V150.84C587.426 154.314 589.342 156.171 593.176 156.41C597.069 156.59 599.016 158.117 599.016 160.992C599.016 164.286 597.219 166.323 593.625 167.102C590.87 167.701 587.096 168 582.305 168ZM652.922 159.824C666.398 159.824 673.137 155.691 673.137 147.426C673.137 141.197 667.057 136.315 654.898 132.781C652.622 132.122 649.867 131.344 646.633 130.445C640.583 128.828 636.51 127.6 634.414 126.762C629.143 124.725 624.681 121.76 621.027 117.867C617.374 113.974 615.547 109.362 615.547 104.031C615.547 97.1432 618.811 91.4232 625.34 86.8711C631.928 82.319 639.865 80.043 649.148 80.043C658.193 80.043 666.668 81.6901 674.574 84.9844C678.467 86.6016 681.612 88.8477 684.008 91.7227C686.464 94.5977 687.691 97.5924 687.691 100.707C687.691 103.822 686.434 106.307 683.918 108.164C681.462 110.021 678.887 110.949 676.191 110.949C673.556 110.949 671.789 110.71 670.891 110.23C670.052 109.691 669.633 108.493 669.633 106.637C669.633 95.0768 663.493 89.2969 651.215 89.2969C646.124 89.2969 641.691 90.4349 637.918 92.7109C634.145 94.9271 632.258 97.832 632.258 101.426C632.258 107.056 638.128 111.518 649.867 114.812C651.724 115.292 653.97 115.891 656.605 116.609C659.241 117.268 661.667 117.957 663.883 118.676C666.099 119.335 668.405 120.143 670.801 121.102C673.257 122 675.832 123.198 678.527 124.695C681.223 126.193 683.409 127.81 685.086 129.547C688.979 133.5 690.926 138.292 690.926 143.922C690.926 149.492 689.039 154.314 685.266 158.387C677.779 166.353 666.997 170.336 652.922 170.336C643.758 170.336 635.312 168.839 627.586 165.844C623.633 164.286 620.458 162.13 618.062 159.375C615.667 156.62 614.469 153.685 614.469 150.57C614.469 147.456 615.457 145.06 617.434 143.383C619.41 141.646 621.656 140.777 624.172 140.777C626.688 140.777 628.814 141.556 630.551 143.113C632.348 144.671 633.246 146.617 633.246 148.953C633.246 151.229 633.036 153.685 632.617 156.32C638.966 158.656 645.734 159.824 652.922 159.824Z"/>
</mask>
<path d="M91.5781 93.6094L86.0977 93.6992C83.8815 93.6992 82.2643 93.4896 81.2461 93.0703C80.2279 92.651 79.7188 91.7826 79.7188 90.4648C79.7188 89.0872 80.2878 87.8594 81.4258 86.7812C82.6237 85.6432 83.9714 84.7747 85.4688 84.1758C89.6016 82.4987 92.0573 81.0911 92.8359 79.9531C93.6745 78.7552 94.9023 76.1797 96.5195 72.2266C100.533 62.3438 103.887 57.4023 106.582 57.4023C107.96 57.4023 108.738 58.8997 108.918 61.8945C109.158 64.8294 109.277 67.0755 109.277 68.6328C109.337 70.1901 109.337 72.526 109.277 75.6406C109.217 78.6953 109.188 80.8216 109.188 82.0195L130.57 82.1094C132.667 82.1094 134.434 82.6484 135.871 83.7266C137.309 84.7448 138.027 86.1224 138.027 87.8594C138.027 89.5964 137.309 90.944 135.871 91.9023C134.493 92.8607 132.757 93.3398 130.66 93.3398H109.188L109.098 139.25C109.098 152.247 112.362 158.746 118.891 158.746C120.688 158.746 123.353 158.207 126.887 157.129C130.421 155.991 132.727 155.422 133.805 155.422C136.26 155.422 137.488 156.829 137.488 159.645C137.488 161.861 134.583 164.077 128.773 166.293C123.023 168.509 117.094 169.617 110.984 169.617C104.935 169.617 100.173 167.251 96.6992 162.52C93.2852 157.788 91.5781 151.559 91.5781 143.832V93.6094ZM166.957 111.039C164.741 111.039 162.225 110.171 159.41 108.434C156.655 106.637 155.277 104.331 155.277 101.516C155.277 98.6406 156.086 95.9453 157.703 93.4297C159.32 90.9141 161.417 88.8776 163.992 87.3203C166.568 85.7031 169.562 84.3555 172.977 83.2773C179.206 81.3008 185.914 80.3125 193.102 80.3125C205.201 80.3125 213.975 83.0078 219.426 88.3984C224.936 93.7292 227.691 102.564 227.691 114.902L227.602 141.406C227.602 147.815 228.41 151.828 230.027 153.445C230.447 153.865 231.764 154.404 233.98 155.062C240.09 156.979 243.145 158.447 243.145 159.465C243.145 165.754 236.706 168.898 223.828 168.898C218.977 168.898 215.802 167.82 214.305 165.664C212.867 163.508 212.089 159.585 211.969 153.895C209.273 158.746 205.171 162.669 199.66 165.664C194.15 168.659 188.25 170.156 181.961 170.156C175.672 170.156 170.341 169.348 165.969 167.73C161.596 166.113 158.033 163.508 155.277 159.914C152.582 156.26 151.234 152.337 151.234 148.145C151.234 143.952 151.714 140.598 152.672 138.082C153.63 135.507 154.828 133.35 156.266 131.613C157.703 129.876 159.65 128.319 162.105 126.941C164.621 125.564 166.957 124.486 169.113 123.707C171.27 122.868 174.055 122.12 177.469 121.461C182.5 120.503 186.723 119.844 190.137 119.484C193.551 119.065 195.318 118.826 195.438 118.766C195.797 118.706 197.833 118.496 201.547 118.137C205.32 117.717 208.285 116.909 210.441 115.711C210.441 104.331 208.914 96.9036 205.859 93.4297C203.164 90.4349 198.732 88.9375 192.562 88.9375C186.393 88.9375 181.751 90.5247 178.637 93.6992C175.582 96.8138 174.055 101.785 174.055 108.613L174.145 110.59C171.629 110.889 169.233 111.039 166.957 111.039ZM210.441 123.797C206.368 125.294 201.757 126.342 196.605 126.941C191.514 127.48 187.501 128.139 184.566 128.918C181.632 129.697 179.176 130.655 177.199 131.793C172.647 134.428 170.371 138.951 170.371 145.359C170.371 155.661 176.361 160.812 188.34 160.812C198.702 160.812 205.26 155.871 208.016 145.988C209.633 140.358 210.441 132.961 210.441 123.797ZM278.363 168L270.637 168.09C262.79 168.09 257.939 166.892 256.082 164.496C255.243 163.418 254.824 162.13 254.824 160.633C254.824 159.076 255.423 157.997 256.621 157.398C257.819 156.799 259.137 156.47 260.574 156.41C262.072 156.35 263.419 155.901 264.617 155.062C265.815 154.164 266.414 152.757 266.414 150.84V99.5391C266.414 96.0651 264.258 93.9688 259.945 93.25C256.951 92.7708 255.124 92.2617 254.465 91.7227C253.866 91.1237 253.566 90.1055 253.566 88.668C253.566 87.1706 254.615 85.8229 256.711 84.625C260.245 82.4688 264.677 81.3906 270.008 81.3906C275.398 81.3906 278.842 82.1693 280.34 83.7266C281.897 85.224 282.676 88.6081 282.676 93.8789C290.882 84.5951 302.172 79.9531 316.547 79.9531C328.227 79.9531 336.492 83.1576 341.344 89.5664C346.255 95.9154 348.711 105.559 348.711 118.496V150.84C348.711 154.314 350.628 156.171 354.461 156.41C358.354 156.59 360.301 158.117 360.301 160.992C360.301 164.227 358.444 166.263 354.73 167.102C351.975 167.701 348.172 168 343.32 168L335.594 168.09C327.747 168.09 322.896 166.892 321.039 164.496C320.201 163.418 319.781 162.13 319.781 160.633C319.781 159.076 320.38 157.997 321.578 157.398C322.776 156.799 324.094 156.47 325.531 156.41C327.029 156.35 328.376 155.901 329.574 155.062C330.772 154.164 331.371 152.757 331.371 150.84V124.695C331.371 113.555 330.083 105.409 327.508 100.258C324.633 94.4479 318.853 91.543 310.168 91.543C299.686 91.543 292.559 94.3281 288.785 99.8984C285.251 105.169 283.484 113.585 283.484 125.145V150.84C283.484 154.314 285.401 156.171 289.234 156.41C293.128 156.59 295.074 158.117 295.074 160.992C295.074 164.286 293.247 166.323 289.594 167.102C286.958 167.701 283.215 168 278.363 168ZM386.895 111.039C384.678 111.039 382.163 110.171 379.348 108.434C376.592 106.637 375.215 104.331 375.215 101.516C375.215 98.6406 376.023 95.9453 377.641 93.4297C379.258 90.9141 381.354 88.8776 383.93 87.3203C386.505 85.7031 389.5 84.3555 392.914 83.2773C399.143 81.3008 405.852 80.3125 413.039 80.3125C425.138 80.3125 433.913 83.0078 439.363 88.3984C444.874 93.7292 447.629 102.564 447.629 114.902L447.539 141.406C447.539 147.815 448.348 151.828 449.965 153.445C450.384 153.865 451.702 154.404 453.918 155.062C460.027 156.979 463.082 158.447 463.082 159.465C463.082 165.754 456.643 168.898 443.766 168.898C438.914 168.898 435.74 167.82 434.242 165.664C432.805 163.508 432.026 159.585 431.906 153.895C429.211 158.746 425.108 162.669 419.598 165.664C414.087 168.659 408.188 170.156 401.898 170.156C395.609 170.156 390.279 169.348 385.906 167.73C381.534 166.113 377.97 163.508 375.215 159.914C372.52 156.26 371.172 152.337 371.172 148.145C371.172 143.952 371.651 140.598 372.609 138.082C373.568 135.507 374.766 133.35 376.203 131.613C377.641 129.876 379.587 128.319 382.043 126.941C384.559 125.564 386.895 124.486 389.051 123.707C391.207 122.868 393.992 122.12 397.406 121.461C402.438 120.503 406.66 119.844 410.074 119.484C413.488 119.065 415.255 118.826 415.375 118.766C415.734 118.706 417.771 118.496 421.484 118.137C425.258 117.717 428.223 116.909 430.379 115.711C430.379 104.331 428.852 96.9036 425.797 93.4297C423.102 90.4349 418.669 88.9375 412.5 88.9375C406.331 88.9375 401.689 90.5247 398.574 93.6992C395.52 96.8138 393.992 101.785 393.992 108.613L394.082 110.59C391.566 110.889 389.171 111.039 386.895 111.039ZM430.379 123.797C426.306 125.294 421.694 126.342 416.543 126.941C411.452 127.48 407.439 128.139 404.504 128.918C401.569 129.697 399.113 130.655 397.137 131.793C392.585 134.428 390.309 138.951 390.309 145.359C390.309 155.661 396.298 160.812 408.277 160.812C418.639 160.812 425.198 155.871 427.953 145.988C429.57 140.358 430.379 132.961 430.379 123.797ZM498.57 168L490.844 168.09C482.997 168.09 478.146 166.892 476.289 164.496C475.451 163.418 475.031 162.13 475.031 160.633C475.031 159.076 475.63 157.997 476.828 157.398C478.026 156.799 479.344 156.47 480.781 156.41C482.279 156.35 483.626 155.901 484.824 155.062C486.022 154.164 486.621 152.757 486.621 150.84V106.457C486.621 101.126 485.962 97.832 484.645 96.5742C483.387 95.3164 482.309 94.5078 481.41 94.1484C480.572 93.7891 479.224 93.3398 477.367 92.8008C475.51 92.2617 473.983 91.7227 472.785 91.1836C471.647 90.6445 471.078 89.8359 471.078 88.7578C471.078 83.9661 477.517 81.5703 490.395 81.5703C495.845 81.5703 499.289 82.5286 500.727 84.4453C502.224 86.3021 502.973 90.6445 502.973 97.4727C505.009 92.3216 508.363 88.2786 513.035 85.3438C517.767 82.4089 522.589 80.9414 527.5 80.9414C532.471 80.9414 536.544 82.0195 539.719 84.1758C542.953 86.2721 544.57 88.9674 544.57 92.2617C544.57 95.4961 543.522 98.1016 541.426 100.078C539.329 101.995 536.754 102.953 533.699 102.953C530.645 102.953 528.009 102.145 525.793 100.527C523.637 98.9102 522.229 96.8138 521.57 94.2383C520.013 93.9987 518.725 93.8789 517.707 93.8789C508.363 93.8789 503.691 104.63 503.691 126.133V150.84C503.691 154.314 505.608 156.171 509.441 156.41C513.335 156.59 515.281 158.117 515.281 160.992C515.281 164.286 513.484 166.323 509.891 167.102C507.135 167.701 503.362 168 498.57 168ZM563.527 55.2461C563.527 52.6107 564.785 50.1549 567.301 47.8789C569.876 45.543 572.661 44.375 575.656 44.375C578.711 44.375 581.646 45.3034 584.461 47.1602C587.336 49.0169 588.773 51.4727 588.773 54.5273C588.773 57.582 587.576 60.1576 585.18 62.2539C582.784 64.2904 579.849 65.3086 576.375 65.3086C572.901 65.3086 569.876 64.3503 567.301 62.4336C564.785 60.5169 563.527 58.1211 563.527 55.2461ZM582.305 168L574.578 168.09C566.732 168.09 561.88 166.892 560.023 164.496C559.185 163.418 558.766 162.13 558.766 160.633C558.766 159.076 559.365 157.997 560.562 157.398C561.76 156.799 563.078 156.47 564.516 156.41C566.013 156.35 567.361 155.901 568.559 155.062C569.757 154.164 570.355 152.757 570.355 150.84V102.504C570.355 97.0534 568.229 94.1185 563.977 93.6992C563.557 93.6393 563.018 93.5794 562.359 93.5195C561.701 93.4596 561.221 93.4297 560.922 93.4297C560.622 93.3698 560.233 93.3099 559.754 93.25C559.335 93.1302 559.005 93.0104 558.766 92.8906C558.586 92.7708 558.376 92.6211 558.137 92.4414C557.717 92.1419 557.508 91.3034 557.508 89.9258C557.508 88.4883 558.406 87.0208 560.203 85.5234C563.617 82.7682 568.169 81.3906 573.859 81.3906C579.13 81.3906 582.215 81.6003 583.113 82.0195C584.072 82.4388 584.88 82.888 585.539 83.3672C586.797 84.2057 587.426 85.793 587.426 88.1289V150.84C587.426 154.314 589.342 156.171 593.176 156.41C597.069 156.59 599.016 158.117 599.016 160.992C599.016 164.286 597.219 166.323 593.625 167.102C590.87 167.701 587.096 168 582.305 168ZM652.922 159.824C666.398 159.824 673.137 155.691 673.137 147.426C673.137 141.197 667.057 136.315 654.898 132.781C652.622 132.122 649.867 131.344 646.633 130.445C640.583 128.828 636.51 127.6 634.414 126.762C629.143 124.725 624.681 121.76 621.027 117.867C617.374 113.974 615.547 109.362 615.547 104.031C615.547 97.1432 618.811 91.4232 625.34 86.8711C631.928 82.319 639.865 80.043 649.148 80.043C658.193 80.043 666.668 81.6901 674.574 84.9844C678.467 86.6016 681.612 88.8477 684.008 91.7227C686.464 94.5977 687.691 97.5924 687.691 100.707C687.691 103.822 686.434 106.307 683.918 108.164C681.462 110.021 678.887 110.949 676.191 110.949C673.556 110.949 671.789 110.71 670.891 110.23C670.052 109.691 669.633 108.493 669.633 106.637C669.633 95.0768 663.493 89.2969 651.215 89.2969C646.124 89.2969 641.691 90.4349 637.918 92.7109C634.145 94.9271 632.258 97.832 632.258 101.426C632.258 107.056 638.128 111.518 649.867 114.812C651.724 115.292 653.97 115.891 656.605 116.609C659.241 117.268 661.667 117.957 663.883 118.676C666.099 119.335 668.405 120.143 670.801 121.102C673.257 122 675.832 123.198 678.527 124.695C681.223 126.193 683.409 127.81 685.086 129.547C688.979 133.5 690.926 138.292 690.926 143.922C690.926 149.492 689.039 154.314 685.266 158.387C677.779 166.353 666.997 170.336 652.922 170.336C643.758 170.336 635.312 168.839 627.586 165.844C623.633 164.286 620.458 162.13 618.062 159.375C615.667 156.62 614.469 153.685 614.469 150.57C614.469 147.456 615.457 145.06 617.434 143.383C619.41 141.646 621.656 140.777 624.172 140.777C626.688 140.777 628.814 141.556 630.551 143.113C632.348 144.671 633.246 146.617 633.246 148.953C633.246 151.229 633.036 153.685 632.617 156.32C638.966 158.656 645.734 159.824 652.922 159.824Z" fill="#6B21F6"/>
<path d="M91.5781 93.6094H94.5781V90.5598L91.529 90.6098L91.5781 93.6094ZM86.0977 93.6992V96.6992H86.1222L86.1468 96.6988L86.0977 93.6992ZM81.2461 93.0703L80.1038 95.8443L81.2461 93.0703ZM81.4258 86.7812L83.489 88.9591L83.492 88.9562L81.4258 86.7812ZM85.4688 84.1758L86.5829 86.9612L86.5899 86.9584L86.5968 86.9556L85.4688 84.1758ZM92.8359 79.9531L90.3782 78.2327L90.3691 78.2459L90.36 78.2591L92.8359 79.9531ZM96.5195 72.2266L99.2962 73.3625L99.2991 73.3552L96.5195 72.2266ZM108.918 61.8945L105.923 62.0742L105.925 62.1064L105.928 62.1386L108.918 61.8945ZM109.277 68.6328H106.277V68.6905L106.28 68.7481L109.277 68.6328ZM109.277 75.6406L112.277 75.6994L112.277 75.6983L109.277 75.6406ZM109.188 82.0195H106.188V85.007L109.175 85.0195L109.188 82.0195ZM130.57 82.1094L130.558 85.1094H130.57V82.1094ZM135.871 83.7266L134.071 86.1266L134.104 86.151L134.137 86.1746L135.871 83.7266ZM135.871 91.9023L134.207 89.4062L134.182 89.4227L134.158 89.4396L135.871 91.9023ZM109.188 93.3398V90.3398H106.193L106.188 93.334L109.188 93.3398ZM109.098 139.25L106.098 139.244V139.25H109.098ZM126.887 157.129L127.762 159.998L127.784 159.992L127.806 159.984L126.887 157.129ZM128.773 166.293L127.704 163.49L127.695 163.494L128.773 166.293ZM96.6992 162.52L94.2664 164.275L94.2736 164.285L94.281 164.295L96.6992 162.52ZM91.529 90.6098L86.0485 90.6996L86.1468 96.6988L91.6273 96.609L91.529 90.6098ZM86.0977 90.6992C83.9574 90.6992 82.8361 90.4806 82.3883 90.2963L80.1038 95.8443C81.6926 96.4985 83.8056 96.6992 86.0977 96.6992V90.6992ZM82.3883 90.2963C82.3917 90.2977 82.4422 90.3195 82.5117 90.3781C82.5835 90.4386 82.6449 90.5127 82.6887 90.5873C82.7748 90.7343 82.7188 90.7509 82.7188 90.4648H76.7188C76.7188 91.4965 76.9172 92.6062 77.5125 93.6217C78.1302 94.6754 79.0486 95.4098 80.1038 95.8443L82.3883 90.2963ZM82.7188 90.4648C82.7188 90.0279 82.8585 89.5564 83.489 88.9591L79.3625 84.6034C77.717 86.1623 76.7188 88.1466 76.7188 90.4648H82.7188ZM83.492 88.9562C84.4211 88.0737 85.4475 87.4154 86.5829 86.9612L84.3546 81.3904C82.4953 82.1341 80.8263 83.2128 79.3595 84.6063L83.492 88.9562ZM86.5968 86.9556C88.7259 86.0916 90.5103 85.2627 91.902 84.4651C93.1936 83.7248 94.5162 82.8101 95.3119 81.6472L90.36 78.2591C90.3771 78.2341 90.0824 78.5923 88.9183 79.2595C87.8543 79.8694 86.3444 80.5829 84.3407 81.3959L86.5968 86.9556ZM95.2936 81.6735C96.3551 80.1572 97.6983 77.2684 99.2962 73.3625L93.7429 71.0907C92.1064 75.091 90.9939 77.3532 90.3782 78.2327L95.2936 81.6735ZM99.2991 73.3552C101.278 68.4824 103.026 65.0043 104.527 62.7933C105.279 61.6853 105.889 61.0167 106.335 60.6523C106.789 60.2809 106.852 60.4023 106.582 60.4023V54.4023C104.965 54.4023 103.597 55.1415 102.539 56.0054C101.473 56.8764 100.488 58.0608 99.5627 59.4235C97.7094 62.1539 95.7743 66.0879 93.7399 71.0979L99.2991 73.3552ZM106.582 60.4023C106.347 60.4023 106.05 60.3268 105.792 60.1472C105.564 59.9888 105.505 59.847 105.538 59.9094C105.572 59.976 105.655 60.1694 105.737 60.5551C105.818 60.933 105.885 61.4329 105.923 62.0742L111.913 61.7149C111.814 60.074 111.541 58.4494 110.861 57.1413C110.094 55.6671 108.662 54.4023 106.582 54.4023V60.4023ZM105.928 62.1386C106.166 65.0501 106.277 67.1995 106.277 68.6328H112.277C112.277 66.9515 112.15 64.6087 111.908 61.6504L105.928 62.1386ZM106.28 68.7481C106.336 70.2158 106.338 72.4812 106.278 75.5829L112.277 75.6983C112.337 72.5709 112.338 70.1645 112.275 68.5175L106.28 68.7481ZM106.278 75.5818C106.218 78.6352 106.188 80.7886 106.188 82.0195H112.188C112.188 80.8546 112.217 78.7554 112.277 75.6994L106.278 75.5818ZM109.175 85.0195L130.558 85.1093L130.583 79.1094L109.2 79.0196L109.175 85.0195ZM130.57 85.1094C132.13 85.1094 133.236 85.5003 134.071 86.1266L137.671 81.3266C135.631 79.7966 133.204 79.1094 130.57 79.1094V85.1094ZM134.137 86.1746C134.794 86.6399 135.027 87.1118 135.027 87.8594H141.027C141.027 85.133 139.823 82.8496 137.605 81.2785L134.137 86.1746ZM135.027 87.8594C135.027 88.5998 134.804 89.0079 134.207 89.4062L137.535 94.3985C139.813 92.8801 141.027 90.5929 141.027 87.8594H135.027ZM134.158 89.4396C133.396 89.9696 132.298 90.3398 130.66 90.3398V96.3398C133.215 96.3398 135.591 95.7517 137.584 94.3651L134.158 89.4396ZM130.66 90.3398H109.188V96.3398H130.66V90.3398ZM106.188 93.334L106.098 139.244L112.098 139.256L112.187 93.3457L106.188 93.334ZM106.098 139.25C106.098 145.903 106.917 151.341 108.865 155.219C109.86 157.2 111.196 158.865 112.947 160.027C114.717 161.202 116.736 161.746 118.891 161.746V155.746C117.781 155.746 116.944 155.478 116.265 155.028C115.568 154.566 114.863 153.793 114.227 152.525C112.91 149.905 112.098 145.594 112.098 139.25H106.098ZM118.891 161.746C121.156 161.746 124.178 161.092 127.762 159.998L126.011 154.259C122.528 155.322 120.219 155.746 118.891 155.746V161.746ZM127.806 159.984C129.539 159.426 130.926 159.023 131.985 158.761C133.115 158.483 133.657 158.422 133.805 158.422V152.422C132.874 152.422 131.724 152.646 130.548 152.936C129.301 153.244 127.768 153.693 125.967 154.273L127.806 159.984ZM133.805 158.422C134.139 158.422 134.299 158.471 134.345 158.488C134.374 158.499 134.34 158.488 134.307 158.45C134.253 158.388 134.488 158.606 134.488 159.645H140.488C140.488 157.867 140.11 155.974 138.828 154.505C137.478 152.958 135.61 152.422 133.805 152.422V158.422ZM134.488 159.645C134.488 159.345 134.678 159.678 133.49 160.584C132.371 161.437 130.501 162.423 127.704 163.49L129.843 169.096C132.856 167.946 135.343 166.717 137.129 165.354C138.846 164.044 140.488 162.16 140.488 159.645H134.488ZM127.695 163.494C122.286 165.578 116.722 166.617 110.984 166.617V172.617C117.466 172.617 123.761 171.44 129.852 169.092L127.695 163.494ZM110.984 166.617C105.856 166.617 102.006 164.679 99.1175 160.744L94.281 164.295C98.3402 169.824 104.014 172.617 110.984 172.617V166.617ZM99.1321 160.764C96.1897 156.686 94.5781 151.131 94.5781 143.832H88.5781C88.5781 151.986 90.3806 158.889 94.2664 164.275L99.1321 160.764ZM94.5781 143.832V93.6094H88.5781V143.832H94.5781ZM159.41 108.434L157.771 110.946L157.803 110.967L157.835 110.987L159.41 108.434ZM163.992 87.3203L165.544 89.8875L165.566 89.8744L165.587 89.861L163.992 87.3203ZM172.977 83.2773L173.88 86.1381L173.884 86.1368L172.977 83.2773ZM219.426 88.3984L217.316 90.5314L217.328 90.5431L217.34 90.5546L219.426 88.3984ZM227.691 114.902L230.691 114.913V114.902H227.691ZM227.602 141.406L224.602 141.396V141.406H227.602ZM230.027 153.445L232.149 151.324L230.027 153.445ZM233.98 155.062L234.878 152.2L234.857 152.193L234.835 152.187L233.98 155.062ZM214.305 165.664L211.809 167.328L211.824 167.352L211.841 167.375L214.305 165.664ZM211.969 153.895L214.968 153.831L214.735 142.739L209.346 152.438L211.969 153.895ZM165.969 167.73L164.928 170.544L165.969 167.73ZM155.277 159.914L152.863 161.695L152.88 161.717L152.897 161.739L155.277 159.914ZM152.672 138.082L155.475 139.15L155.479 139.139L155.484 139.128L152.672 138.082ZM162.105 126.941L160.665 124.31L160.651 124.317L160.638 124.325L162.105 126.941ZM169.113 123.707L170.132 126.529L170.167 126.516L170.201 126.503L169.113 123.707ZM177.469 121.461L176.907 118.514L176.9 118.515L177.469 121.461ZM190.137 119.484L190.451 122.468L190.477 122.465L190.502 122.462L190.137 119.484ZM195.438 118.766L194.944 115.806L194.499 115.881L194.096 116.082L195.438 118.766ZM201.547 118.137L201.836 121.123L201.857 121.121L201.878 121.118L201.547 118.137ZM210.441 115.711L211.898 118.333L213.441 117.476V115.711H210.441ZM205.859 93.4297L208.112 91.4487L208.101 91.4357L208.089 91.4228L205.859 93.4297ZM178.637 93.6992L176.495 91.5982L176.495 91.5986L178.637 93.6992ZM174.055 108.613H171.055V108.681L171.058 108.75L174.055 108.613ZM174.145 110.59L174.499 113.569L177.268 113.239L177.141 110.454L174.145 110.59ZM210.441 123.797H213.441V119.498L209.406 120.981L210.441 123.797ZM196.605 126.941L196.921 129.925L196.937 129.923L196.952 129.921L196.605 126.941ZM177.199 131.793L175.702 129.193L175.696 129.197L177.199 131.793ZM208.016 145.988L205.132 145.16L205.129 145.171L205.126 145.183L208.016 145.988ZM166.957 108.039C165.507 108.039 163.545 107.46 160.985 105.88L157.835 110.987C160.906 112.882 163.975 114.039 166.957 114.039V108.039ZM161.049 105.921C158.976 104.569 158.277 103.133 158.277 101.516H152.277C152.277 105.528 154.333 108.704 157.771 110.946L161.049 105.921ZM158.277 101.516C158.277 99.2398 158.907 97.1042 160.227 95.052L155.18 91.8074C153.265 94.7864 152.277 98.0415 152.277 101.516H158.277ZM160.227 95.052C161.595 92.9238 163.358 91.2096 165.544 89.8875L162.44 84.7531C159.475 86.5456 157.046 88.9043 155.18 91.8074L160.227 95.052ZM165.587 89.861C167.913 88.4009 170.667 87.1526 173.88 86.1381L172.073 80.4166C168.458 81.5584 165.223 83.0053 162.397 84.7796L165.587 89.861ZM173.884 86.1368C179.792 84.2622 186.191 83.3125 193.102 83.3125V77.3125C185.637 77.3125 178.62 78.3394 172.069 80.4178L173.884 86.1368ZM193.102 83.3125C204.852 83.3125 212.678 85.9442 217.316 90.5314L221.535 86.2654C215.273 80.0715 205.549 77.3125 193.102 77.3125V83.3125ZM217.34 90.5546C221.994 95.0572 224.691 102.899 224.691 114.902H230.691C230.691 102.229 227.878 92.4011 221.512 86.2423L217.34 90.5546ZM224.691 114.892L224.602 141.396L230.602 141.416L230.691 114.913L224.691 114.892ZM224.602 141.406C224.602 144.712 224.808 147.537 225.267 149.815C225.708 152.003 226.464 154.124 227.906 155.567L232.149 151.324C231.974 151.149 231.517 150.456 231.149 148.63C230.799 146.896 230.602 144.51 230.602 141.406H224.602ZM227.906 155.567C228.587 156.247 229.543 156.674 230.194 156.941C230.984 157.264 231.973 157.595 233.126 157.938L234.835 152.187C233.772 151.871 232.994 151.604 232.466 151.387C232.202 151.279 232.042 151.201 231.959 151.155C231.847 151.094 231.965 151.141 232.149 151.324L227.906 155.567ZM233.082 157.925C236.098 158.871 238.225 159.666 239.554 160.305C240.235 160.631 240.564 160.851 240.678 160.944C240.956 161.169 240.145 160.671 240.145 159.465H246.145C246.145 157.75 244.952 156.686 244.465 156.29C243.816 155.762 243 155.303 242.153 154.896C240.428 154.068 237.973 153.171 234.878 152.2L233.082 157.925ZM240.145 159.465C240.145 160.497 239.89 161.27 239.459 161.901C239.014 162.554 238.258 163.229 236.999 163.844C234.397 165.115 230.119 165.898 223.828 165.898V171.898C230.415 171.898 235.795 171.11 239.632 169.236C241.592 168.279 243.251 166.989 244.415 165.283C245.594 163.555 246.145 161.577 246.145 159.465H240.145ZM223.828 165.898C219.162 165.898 217.368 164.816 216.769 163.953L211.841 167.375C214.236 170.825 218.791 171.898 223.828 171.898V165.898ZM216.801 164C215.884 162.624 215.087 159.487 214.968 153.831L208.969 153.958C209.09 159.683 209.851 164.391 211.809 167.328L216.801 164ZM209.346 152.438C206.962 156.729 203.304 160.269 198.228 163.028L201.093 168.3C207.037 165.069 211.584 160.764 214.591 155.351L209.346 152.438ZM198.228 163.028C193.158 165.783 187.751 167.156 181.961 167.156V173.156C188.749 173.156 195.141 171.534 201.093 168.3L198.228 163.028ZM181.961 167.156C175.911 167.156 170.955 166.376 167.009 164.917L164.928 170.544C169.727 172.319 175.433 173.156 181.961 173.156V167.156ZM167.009 164.917C163.152 163.49 160.058 161.219 157.658 158.089L152.897 161.739C156.007 165.796 160.041 168.737 164.928 170.544L167.009 164.917ZM157.692 158.133C155.343 154.95 154.234 151.642 154.234 148.145H148.234C148.234 153.032 149.821 157.571 152.863 161.695L157.692 158.133ZM154.234 148.145C154.234 144.136 154.699 141.189 155.475 139.15L149.868 137.014C148.728 140.006 148.234 143.768 148.234 148.145H154.234ZM155.484 139.128C156.349 136.801 157.394 134.955 158.577 133.526L153.954 129.701C152.262 131.746 150.911 134.212 149.86 137.036L155.484 139.128ZM158.577 133.526C159.728 132.134 161.362 130.798 163.573 129.558L160.638 124.325C157.937 125.84 155.678 127.618 153.954 129.701L158.577 133.526ZM163.546 129.573C165.959 128.252 168.152 127.244 170.132 126.529L168.094 120.885C165.762 121.728 163.284 122.876 160.665 124.31L163.546 129.573ZM170.201 126.503C172.128 125.754 174.721 125.046 178.037 124.407L176.9 118.515C173.388 119.193 170.411 119.983 168.026 120.911L170.201 126.503ZM178.03 124.408C183.015 123.458 187.149 122.815 190.451 122.468L189.823 116.501C186.296 116.872 181.985 117.547 176.907 118.514L178.03 124.408ZM190.502 122.462C192.213 122.252 193.523 122.085 194.426 121.963C194.874 121.902 195.239 121.85 195.509 121.807C195.641 121.786 195.775 121.764 195.896 121.74C195.954 121.728 196.038 121.711 196.131 121.687C196.141 121.685 196.447 121.615 196.779 121.449L194.096 116.082C194.296 115.982 194.46 115.93 194.509 115.914C194.58 115.891 194.634 115.877 194.66 115.871C194.713 115.857 194.743 115.852 194.735 115.853C194.723 115.856 194.673 115.865 194.569 115.881C194.367 115.913 194.054 115.958 193.619 116.017C192.755 116.135 191.475 116.298 189.771 116.507L190.502 122.462ZM195.931 121.725C195.927 121.725 196.038 121.71 196.357 121.674C196.643 121.642 197.036 121.6 197.542 121.548C198.551 121.444 199.981 121.302 201.836 121.123L201.258 115.151C197.635 115.501 195.437 115.724 194.944 115.806L195.931 121.725ZM201.878 121.118C205.856 120.676 209.259 119.8 211.898 118.333L208.984 113.088C207.312 114.018 204.785 114.758 201.216 115.155L201.878 121.118ZM213.441 115.711C213.441 109.908 213.054 104.986 212.234 101.001C211.426 97.0682 210.138 93.7523 208.112 91.4487L203.606 95.4107C204.636 96.5811 205.639 98.7157 206.357 102.21C207.065 105.652 207.441 110.134 207.441 115.711H213.441ZM208.089 91.4228C204.581 87.5247 199.132 85.9375 192.562 85.9375V91.9375C198.331 91.9375 201.747 93.3451 203.629 95.4366L208.089 91.4228ZM192.562 85.9375C185.906 85.9375 180.364 87.6554 176.495 91.5982L180.778 95.8002C183.139 93.3941 186.88 91.9375 192.562 91.9375V85.9375ZM176.495 91.5986C172.649 95.5202 171.055 101.43 171.055 108.613H177.055C177.055 102.141 178.515 98.1074 180.779 95.7998L176.495 91.5986ZM171.058 108.75L171.148 110.726L177.141 110.454L177.052 108.477L171.058 108.75ZM173.79 107.611C171.379 107.898 169.102 108.039 166.957 108.039V114.039C169.364 114.039 171.879 113.881 174.499 113.569L173.79 107.611ZM209.406 120.981C205.594 122.383 201.219 123.385 196.259 123.961L196.952 129.921C202.294 129.3 207.143 128.206 211.477 126.613L209.406 120.981ZM196.29 123.958C191.134 124.504 186.947 125.183 183.797 126.018L185.336 131.818C188.055 131.096 191.895 130.457 196.921 129.925L196.29 123.958ZM183.797 126.018C180.686 126.844 177.968 127.888 175.702 129.193L178.696 134.393C180.383 133.421 182.577 132.55 185.336 131.818L183.797 126.018ZM175.696 129.197C170.002 132.493 167.371 138.155 167.371 145.359H173.371C173.371 139.746 175.292 136.364 178.702 134.389L175.696 129.197ZM167.371 145.359C167.371 151.101 169.061 155.916 172.907 159.224C176.667 162.457 181.989 163.812 188.34 163.812V157.812C182.711 157.812 179.05 156.593 176.819 154.675C174.676 152.831 173.371 149.92 173.371 145.359H167.371ZM188.34 163.812C194 163.812 198.913 162.458 202.836 159.503C206.761 156.545 209.396 152.209 210.905 146.794L205.126 145.183C203.88 149.65 201.858 152.726 199.225 154.71C196.589 156.697 193.042 157.812 188.34 157.812V163.812ZM210.899 146.816C212.624 140.81 213.441 133.102 213.441 123.797H207.441C207.441 132.82 206.641 139.906 205.132 145.16L210.899 146.816ZM278.363 168V165H278.346L278.328 165L278.363 168ZM270.637 168.09V171.09H270.654L270.672 171.09L270.637 168.09ZM256.082 164.496L258.453 162.658L258.45 162.654L256.082 164.496ZM260.574 156.41L260.454 153.413L260.449 153.413L260.574 156.41ZM264.617 155.062L266.338 157.52L266.378 157.492L266.417 157.463L264.617 155.062ZM259.945 93.25L260.439 90.2908L260.429 90.2892L260.419 90.2877L259.945 93.25ZM254.465 91.7227L252.344 93.844L252.449 93.9498L252.565 94.0445L254.465 91.7227ZM256.711 84.625L258.199 87.2297L258.237 87.2084L258.274 87.1859L256.711 84.625ZM280.34 83.7266L278.177 85.8059L278.218 85.8483L278.261 85.8891L280.34 83.7266ZM282.676 93.8789H279.676V101.803L284.924 95.8657L282.676 93.8789ZM341.344 89.5664L338.952 91.3771L338.961 91.3896L338.971 91.402L341.344 89.5664ZM354.461 156.41L354.274 159.404L354.298 159.406L354.323 159.407L354.461 156.41ZM354.73 167.102L355.368 170.033L355.38 170.031L355.391 170.028L354.73 167.102ZM343.32 168V165H343.303L343.285 165L343.32 168ZM335.594 168.09V171.09H335.611L335.629 171.09L335.594 168.09ZM321.039 164.496L323.41 162.658L323.407 162.654L321.039 164.496ZM325.531 156.41L325.411 153.413L325.406 153.413L325.531 156.41ZM329.574 155.062L331.295 157.52L331.335 157.492L331.374 157.463L329.574 155.062ZM327.508 100.258L324.819 101.588L324.825 101.599L327.508 100.258ZM288.785 99.8984L286.301 98.2159L286.297 98.2218L286.293 98.2278L288.785 99.8984ZM289.234 156.41L289.047 159.404L289.072 159.406L289.096 159.407L289.234 156.41ZM289.594 167.102L288.968 164.167L288.949 164.172L288.929 164.176L289.594 167.102ZM278.328 165L270.602 165.09L270.672 171.09L278.398 171L278.328 165ZM270.637 165.09C266.835 165.09 263.929 164.797 261.832 164.279C259.671 163.745 258.774 163.073 258.453 162.658L253.711 166.334C255.246 168.315 257.704 169.44 260.394 170.104C263.149 170.784 266.592 171.09 270.637 171.09V165.09ZM258.45 162.654C258.061 162.154 257.824 161.531 257.824 160.633H251.824C251.824 162.729 252.426 164.682 253.714 166.338L258.45 162.654ZM257.824 160.633C257.824 160.434 257.843 160.301 257.862 160.22C257.871 160.179 257.88 160.153 257.886 160.136C257.892 160.12 257.896 160.113 257.896 160.113C257.896 160.113 257.894 160.116 257.89 160.121C257.886 160.126 257.883 160.13 257.882 160.131C257.878 160.134 257.898 160.114 257.963 160.082L255.279 154.715C254.188 155.261 253.269 156.086 252.651 157.199C252.047 158.286 251.824 159.476 251.824 160.633H257.824ZM257.963 160.082C258.754 159.686 259.653 159.451 260.699 159.408L260.449 153.413C258.621 153.489 256.884 153.913 255.279 154.715L257.963 160.082ZM260.694 159.408C262.751 159.325 264.657 158.697 266.338 157.52L262.897 152.605C262.182 153.105 261.393 153.375 260.454 153.413L260.694 159.408ZM266.417 157.463C268.576 155.843 269.414 153.41 269.414 150.84H263.414C263.414 152.103 263.054 152.485 262.817 152.662L266.417 157.463ZM269.414 150.84V99.5391H263.414V150.84H269.414ZM269.414 99.5391C269.414 97.1286 268.638 94.9121 266.888 93.2103C265.215 91.5833 262.937 90.7072 260.439 90.2908L259.452 96.2092C261.267 96.5116 262.223 97.043 262.706 97.5123C263.112 97.9069 263.414 98.4756 263.414 99.5391H269.414ZM260.419 90.2877C258.976 90.0568 257.894 89.8307 257.134 89.6189C256.755 89.5133 256.501 89.4233 256.344 89.3571C256.162 89.2806 256.217 89.2797 256.365 89.4008L252.565 94.0445C253.42 94.7441 254.583 95.1365 255.524 95.3987C256.591 95.696 257.92 95.9641 259.471 96.2123L260.419 90.2877ZM256.586 89.6013C256.72 89.7357 256.712 89.8105 256.669 89.6633C256.623 89.5067 256.566 89.1944 256.566 88.668H250.566C250.566 90.3809 250.898 92.3985 252.344 93.844L256.586 89.6013ZM256.566 88.668C256.566 88.652 256.568 88.6379 256.578 88.6101C256.59 88.5781 256.624 88.4996 256.721 88.376C256.926 88.1113 257.361 87.7088 258.199 87.2297L255.223 82.0203C252.796 83.4069 250.566 85.5433 250.566 88.668H256.566ZM258.274 87.1859C261.219 85.3885 265.072 84.3906 270.008 84.3906V78.3906C264.282 78.3906 259.27 79.549 255.148 82.0641L258.274 87.1859ZM270.008 84.3906C272.584 84.3906 274.549 84.579 275.972 84.9008C277.45 85.235 278.019 85.641 278.177 85.8059L282.502 81.6472C281.164 80.2549 279.261 79.4929 277.295 79.0485C275.274 78.5916 272.822 78.3906 270.008 78.3906V84.3906ZM278.261 85.8891C278.435 86.0568 278.837 86.6222 279.168 88.0604C279.488 89.4496 279.676 91.3662 279.676 93.8789H285.676C285.676 91.1208 285.474 88.7099 285.015 86.715C284.568 84.7691 283.802 82.8937 282.419 81.5641L278.261 85.8891ZM284.924 95.8657C292.466 87.3318 302.88 82.9531 316.547 82.9531V76.9531C301.464 76.9531 289.297 81.8583 280.428 91.8921L284.924 95.8657ZM316.547 82.9531C327.733 82.9531 334.891 86.0131 338.952 91.3771L343.736 87.7557C338.093 80.302 328.72 76.9531 316.547 76.9531V82.9531ZM338.971 91.402C343.294 96.9899 345.711 105.846 345.711 118.496H351.711C351.711 105.271 349.217 94.8408 343.717 87.7308L338.971 91.402ZM345.711 118.496V150.84H351.711V118.496H345.711ZM345.711 150.84C345.711 153.132 346.358 155.343 348.061 156.993C349.717 158.597 351.952 159.259 354.274 159.404L354.648 153.416C353.137 153.322 352.496 152.935 352.236 152.683C352.022 152.476 351.711 152.021 351.711 150.84H345.711ZM354.323 159.407C355.978 159.483 356.716 159.836 356.989 160.051C357.115 160.149 357.301 160.308 357.301 160.992H363.301C363.301 158.801 362.513 156.759 360.693 155.33C359.019 154.017 356.837 153.517 354.599 153.413L354.323 159.407ZM357.301 160.992C357.301 162 357.03 162.553 356.691 162.924C356.308 163.345 355.55 163.841 354.07 164.175L355.391 170.028C357.625 169.524 359.652 168.582 361.125 166.967C362.643 165.302 363.301 163.219 363.301 160.992H357.301ZM354.093 164.17C351.644 164.702 348.087 165 343.32 165V171C348.257 171 352.306 170.699 355.368 170.033L354.093 164.17ZM343.285 165L335.559 165.09L335.629 171.09L343.355 171L343.285 165ZM335.594 165.09C331.792 165.09 328.886 164.797 326.789 164.279C324.628 163.745 323.732 163.073 323.41 162.658L318.668 166.334C320.203 168.315 322.661 169.44 325.351 170.104C328.106 170.784 331.549 171.09 335.594 171.09V165.09ZM323.407 162.654C323.018 162.154 322.781 161.531 322.781 160.633H316.781C316.781 162.729 317.383 164.682 318.671 166.338L323.407 162.654ZM322.781 160.633C322.781 160.434 322.8 160.301 322.819 160.22C322.828 160.179 322.837 160.153 322.843 160.136C322.849 160.12 322.853 160.113 322.853 160.113C322.853 160.113 322.851 160.116 322.847 160.121C322.843 160.126 322.84 160.13 322.839 160.131C322.835 160.134 322.855 160.114 322.92 160.082L320.236 154.715C319.145 155.261 318.226 156.086 317.608 157.199C317.004 158.286 316.781 159.476 316.781 160.633H322.781ZM322.92 160.082C323.711 159.686 324.61 159.451 325.656 159.408L325.406 153.413C323.578 153.489 321.841 153.913 320.236 154.715L322.92 160.082ZM325.651 159.408C327.708 159.325 329.614 158.697 331.295 157.52L327.854 152.605C327.139 153.105 326.35 153.375 325.411 153.413L325.651 159.408ZM331.374 157.463C333.533 155.843 334.371 153.41 334.371 150.84H328.371C328.371 152.103 328.011 152.485 327.774 152.662L331.374 157.463ZM334.371 150.84V124.695H328.371V150.84H334.371ZM334.371 124.695C334.371 113.446 333.091 104.716 330.191 98.9162L324.825 101.599C327.076 106.102 328.371 113.663 328.371 124.695H334.371ZM330.197 98.9273C326.642 91.7434 319.54 88.543 310.168 88.543V94.543C318.166 94.543 322.624 97.1524 324.819 101.588L330.197 98.9273ZM310.168 88.543C299.268 88.543 290.893 91.4376 286.301 98.2159L291.269 101.581C294.224 97.2186 300.104 94.543 310.168 94.543V88.543ZM286.293 98.2278C282.253 104.255 280.484 113.412 280.484 125.145H286.484C286.484 113.757 288.25 106.084 291.277 101.569L286.293 98.2278ZM280.484 125.145V150.84H286.484V125.145H280.484ZM280.484 150.84C280.484 153.132 281.131 155.343 282.834 156.993C284.491 158.597 286.725 159.259 289.047 159.404L289.422 153.416C287.91 153.322 287.27 152.935 287.009 152.683C286.796 152.476 286.484 152.021 286.484 150.84H280.484ZM289.096 159.407C290.751 159.483 291.489 159.836 291.762 160.051C291.888 160.149 292.074 160.308 292.074 160.992H298.074C298.074 158.801 297.287 156.759 295.466 155.33C293.793 154.017 291.611 153.517 289.373 153.413L289.096 159.407ZM292.074 160.992C292.074 162.059 291.794 162.627 291.471 162.987C291.112 163.387 290.397 163.863 288.968 164.167L290.219 170.036C292.444 169.561 294.47 168.63 295.937 166.993C297.441 165.317 298.074 163.22 298.074 160.992H292.074ZM288.929 164.176C286.619 164.701 283.138 165 278.363 165V171C283.292 171 287.298 170.7 290.259 170.027L288.929 164.176ZM379.348 108.434L377.709 110.946L377.74 110.967L377.772 110.987L379.348 108.434ZM383.93 87.3203L385.482 89.8875L385.504 89.8744L385.525 89.861L383.93 87.3203ZM392.914 83.2773L393.817 86.1381L393.821 86.1368L392.914 83.2773ZM439.363 88.3984L437.254 90.5314L437.265 90.5431L437.277 90.5546L439.363 88.3984ZM447.629 114.902L450.629 114.913V114.902H447.629ZM447.539 141.406L444.539 141.396V141.406H447.539ZM449.965 153.445L452.086 151.324L449.965 153.445ZM453.918 155.062L454.816 152.2L454.794 152.193L454.773 152.187L453.918 155.062ZM434.242 165.664L431.746 167.328L431.762 167.352L431.778 167.375L434.242 165.664ZM431.906 153.895L434.906 153.831L434.672 142.739L429.284 152.438L431.906 153.895ZM385.906 167.73L384.866 170.544L385.906 167.73ZM375.215 159.914L372.801 161.695L372.817 161.717L372.834 161.739L375.215 159.914ZM372.609 138.082L375.413 139.15L375.417 139.139L375.421 139.128L372.609 138.082ZM382.043 126.941L380.602 124.31L380.589 124.317L380.575 124.325L382.043 126.941ZM389.051 123.707L390.07 126.529L390.104 126.516L390.138 126.503L389.051 123.707ZM397.406 121.461L396.845 118.514L396.838 118.515L397.406 121.461ZM410.074 119.484L410.388 122.468L410.414 122.465L410.44 122.462L410.074 119.484ZM415.375 118.766L414.882 115.806L414.437 115.881L414.033 116.082L415.375 118.766ZM421.484 118.137L421.773 121.123L421.795 121.121L421.816 121.118L421.484 118.137ZM430.379 115.711L431.836 118.333L433.379 117.476V115.711H430.379ZM425.797 93.4297L428.05 91.4487L428.038 91.4357L428.027 91.4228L425.797 93.4297ZM398.574 93.6992L396.433 91.5982L396.432 91.5986L398.574 93.6992ZM393.992 108.613H390.992V108.681L390.995 108.75L393.992 108.613ZM394.082 110.59L394.437 113.569L397.206 113.239L397.079 110.454L394.082 110.59ZM430.379 123.797H433.379V119.498L429.344 120.981L430.379 123.797ZM416.543 126.941L416.859 129.925L416.874 129.923L416.889 129.921L416.543 126.941ZM397.137 131.793L395.64 129.193L395.634 129.197L397.137 131.793ZM427.953 145.988L425.07 145.16L425.066 145.171L425.063 145.183L427.953 145.988ZM386.895 108.039C385.445 108.039 383.482 107.46 380.923 105.88L377.772 110.987C380.843 112.882 383.912 114.039 386.895 114.039V108.039ZM380.986 105.921C378.914 104.569 378.215 103.133 378.215 101.516H372.215C372.215 105.528 374.271 108.704 377.709 110.946L380.986 105.921ZM378.215 101.516C378.215 99.2398 378.845 97.1042 380.164 95.052L375.117 91.8074C373.202 94.7864 372.215 98.0415 372.215 101.516H378.215ZM380.164 95.052C381.532 92.9238 383.295 91.2096 385.482 89.8875L382.377 84.7531C379.413 86.5456 376.983 88.9043 375.117 91.8074L380.164 95.052ZM385.525 89.861C387.85 88.4009 390.605 87.1526 393.817 86.1381L392.011 80.4166C388.395 81.5584 385.16 83.0053 382.334 84.7796L385.525 89.861ZM393.821 86.1368C399.729 84.2622 406.129 83.3125 413.039 83.3125V77.3125C405.574 77.3125 398.557 78.3394 392.007 80.4178L393.821 86.1368ZM413.039 83.3125C424.789 83.3125 432.615 85.9442 437.254 90.5314L441.473 86.2654C435.21 80.0715 425.487 77.3125 413.039 77.3125V83.3125ZM437.277 90.5546C441.932 95.0572 444.629 102.899 444.629 114.902H450.629C450.629 102.229 447.816 92.4011 441.449 86.2423L437.277 90.5546ZM444.629 114.892L444.539 141.396L450.539 141.416L450.629 114.913L444.629 114.892ZM444.539 141.406C444.539 144.712 444.745 147.537 445.205 149.815C445.645 152.003 446.401 154.124 447.844 155.567L452.086 151.324C451.911 151.149 451.454 150.456 451.086 148.63C450.737 146.896 450.539 144.51 450.539 141.406H444.539ZM447.844 155.567C448.524 156.247 449.48 156.674 450.132 156.941C450.921 157.264 451.911 157.595 453.063 157.938L454.773 152.187C453.709 151.871 452.932 151.604 452.403 151.387C452.139 151.279 451.98 151.201 451.897 151.155C451.785 151.094 451.903 151.141 452.086 151.324L447.844 155.567ZM453.02 157.925C456.035 158.871 458.162 159.666 459.492 160.305C460.172 160.631 460.501 160.851 460.616 160.944C460.893 161.169 460.082 160.671 460.082 159.465H466.082C466.082 157.75 464.889 156.686 464.403 156.29C463.753 155.762 462.937 155.303 462.09 154.896C460.365 154.068 457.91 153.171 454.816 152.2L453.02 157.925ZM460.082 159.465C460.082 160.497 459.827 161.27 459.397 161.901C458.951 162.554 458.196 163.229 456.936 163.844C454.335 165.115 450.056 165.898 443.766 165.898V171.898C450.352 171.898 455.732 171.11 459.569 169.236C461.529 168.279 463.189 166.989 464.353 165.283C465.532 163.555 466.082 161.577 466.082 159.465H460.082ZM443.766 165.898C439.099 165.898 437.305 164.816 436.706 163.953L431.778 167.375C434.174 170.825 438.729 171.898 443.766 171.898V165.898ZM436.738 164C435.821 162.624 435.025 159.487 434.906 153.831L428.907 153.958C429.027 159.683 429.788 164.391 431.746 167.328L436.738 164ZM429.284 152.438C426.9 156.729 423.242 160.269 418.165 163.028L421.03 168.3C426.974 165.069 431.522 160.764 434.529 155.351L429.284 152.438ZM418.165 163.028C413.096 165.783 407.689 167.156 401.898 167.156V173.156C408.686 173.156 415.079 171.534 421.03 168.3L418.165 163.028ZM401.898 167.156C395.848 167.156 390.892 166.376 386.947 164.917L384.866 170.544C389.665 172.319 395.37 173.156 401.898 173.156V167.156ZM386.947 164.917C383.089 163.49 379.996 161.219 377.596 158.089L372.834 161.739C375.944 165.796 379.979 168.737 384.866 170.544L386.947 164.917ZM377.629 158.133C375.281 154.95 374.172 151.642 374.172 148.145H368.172C368.172 153.032 369.758 157.571 372.801 161.695L377.629 158.133ZM374.172 148.145C374.172 144.136 374.636 141.189 375.413 139.15L369.806 137.014C368.666 140.006 368.172 143.768 368.172 148.145H374.172ZM375.421 139.128C376.287 136.801 377.332 134.955 378.514 133.526L373.892 129.701C372.199 131.746 370.848 134.212 369.798 137.036L375.421 139.128ZM378.514 133.526C379.666 132.134 381.3 130.798 383.511 129.558L380.575 124.325C377.875 125.84 375.615 127.618 373.892 129.701L378.514 133.526ZM383.484 129.573C385.896 128.252 388.09 127.244 390.07 126.529L388.032 120.885C385.699 121.728 383.221 122.876 380.602 124.31L383.484 129.573ZM390.138 126.503C392.065 125.754 394.659 125.046 397.975 124.407L396.838 118.515C393.325 119.193 390.349 119.983 387.963 120.911L390.138 126.503ZM397.968 124.408C402.953 123.458 407.087 122.815 410.388 122.468L409.76 116.501C406.234 116.872 401.922 117.547 396.845 118.514L397.968 124.408ZM410.44 122.462C412.15 122.252 413.46 122.085 414.363 121.963C414.812 121.902 415.177 121.85 415.447 121.807C415.578 121.786 415.713 121.764 415.833 121.74C415.891 121.728 415.976 121.711 416.069 121.687C416.078 121.685 416.384 121.615 416.717 121.449L414.033 116.082C414.233 115.982 414.397 115.93 414.446 115.914C414.517 115.891 414.572 115.877 414.598 115.871C414.65 115.857 414.681 115.852 414.672 115.853C414.66 115.856 414.61 115.865 414.506 115.881C414.304 115.913 413.992 115.958 413.557 116.017C412.693 116.135 411.412 116.298 409.709 116.507L410.44 122.462ZM415.868 121.725C415.865 121.725 415.976 121.71 416.294 121.674C416.58 121.642 416.974 121.6 417.479 121.548C418.488 121.444 419.919 121.302 421.773 121.123L421.195 115.151C417.572 115.501 415.375 115.724 414.882 115.806L415.868 121.725ZM421.816 121.118C425.793 120.676 429.196 119.8 431.836 118.333L428.922 113.088C427.249 114.018 424.722 114.758 421.153 115.155L421.816 121.118ZM433.379 115.711C433.379 109.908 432.991 104.986 432.172 101.001C431.363 97.0682 430.075 93.7523 428.05 91.4487L423.544 95.4107C424.573 96.5811 425.576 98.7157 426.295 102.21C427.003 105.652 427.379 110.134 427.379 115.711H433.379ZM428.027 91.4228C424.518 87.5247 419.07 85.9375 412.5 85.9375V91.9375C418.269 91.9375 421.685 93.3451 423.567 95.4366L428.027 91.4228ZM412.5 85.9375C405.844 85.9375 400.301 87.6554 396.433 91.5982L400.716 95.8002C403.076 93.3941 406.818 91.9375 412.5 91.9375V85.9375ZM396.432 91.5986C392.586 95.5202 390.992 101.43 390.992 108.613H396.992C396.992 102.141 398.453 98.1074 400.716 95.7998L396.432 91.5986ZM390.995 108.75L391.085 110.726L397.079 110.454L396.989 108.477L390.995 108.75ZM393.727 107.611C391.316 107.898 389.04 108.039 386.895 108.039V114.039C389.301 114.039 391.816 113.881 394.437 113.569L393.727 107.611ZM429.344 120.981C425.531 122.383 421.156 123.385 416.196 123.961L416.889 129.921C422.232 129.3 427.081 128.206 431.414 126.613L429.344 120.981ZM416.227 123.958C411.071 124.504 406.885 125.183 403.735 126.018L405.273 131.818C407.993 131.096 411.832 130.457 416.859 129.925L416.227 123.958ZM403.735 126.018C400.624 126.844 397.906 127.888 395.64 129.193L398.634 134.393C400.321 133.421 402.514 132.55 405.273 131.818L403.735 126.018ZM395.634 129.197C389.94 132.493 387.309 138.155 387.309 145.359H393.309C393.309 139.746 395.23 136.364 398.64 134.389L395.634 129.197ZM387.309 145.359C387.309 151.101 388.999 155.916 392.845 159.224C396.604 162.457 401.927 163.812 408.277 163.812V157.812C402.649 157.812 398.987 156.593 396.757 154.675C394.613 152.831 393.309 149.92 393.309 145.359H387.309ZM408.277 163.812C413.937 163.812 418.851 162.458 422.773 159.503C426.698 156.545 429.333 152.209 430.843 146.794L425.063 145.183C423.818 149.65 421.796 152.726 419.163 154.71C416.526 156.697 412.98 157.812 408.277 157.812V163.812ZM430.837 146.816C432.562 140.81 433.379 133.102 433.379 123.797H427.379C427.379 132.82 426.579 139.906 425.07 145.16L430.837 146.816ZM498.57 168V165H498.553L498.535 165L498.57 168ZM490.844 168.09V171.09H490.861L490.879 171.09L490.844 168.09ZM476.289 164.496L478.66 162.658L478.657 162.654L476.289 164.496ZM480.781 156.41L480.661 153.413L480.656 153.413L480.781 156.41ZM484.824 155.062L486.545 157.52L486.585 157.492L486.624 157.463L484.824 155.062ZM484.645 96.5742L482.523 98.6955L482.548 98.7202L482.573 98.7443L484.645 96.5742ZM481.41 94.1484L480.228 96.9059L480.262 96.9203L480.296 96.9339L481.41 94.1484ZM472.785 91.1836L471.501 93.8948L471.527 93.9073L471.554 93.9194L472.785 91.1836ZM500.727 84.4453L498.327 86.2453L498.358 86.2875L498.391 86.3286L500.727 84.4453ZM502.973 97.4727H499.973L505.763 98.5756L502.973 97.4727ZM513.035 85.3438L511.454 82.7943L511.447 82.7989L511.439 82.8034L513.035 85.3438ZM539.719 84.1758L538.033 86.6574L538.06 86.6756L538.087 86.6932L539.719 84.1758ZM541.426 100.078L543.45 102.292L543.467 102.277L543.484 102.261L541.426 100.078ZM525.793 100.527L523.993 102.927L524.009 102.939L524.025 102.951L525.793 100.527ZM521.57 94.2383L524.477 93.4948L523.985 91.5746L522.026 91.2732L521.57 94.2383ZM509.441 156.41L509.254 159.404L509.279 159.406L509.303 159.407L509.441 156.41ZM509.891 167.102L509.255 164.17L509.253 164.17L509.891 167.102ZM498.535 165L490.809 165.09L490.879 171.09L498.605 171L498.535 165ZM490.844 165.09C487.042 165.09 484.136 164.797 482.039 164.279C479.878 163.745 478.982 163.073 478.66 162.658L473.918 166.334C475.453 168.315 477.911 169.44 480.601 170.104C483.356 170.784 486.799 171.09 490.844 171.09V165.09ZM478.657 162.654C478.268 162.154 478.031 161.531 478.031 160.633H472.031C472.031 162.729 472.633 164.682 473.921 166.338L478.657 162.654ZM478.031 160.633C478.031 160.434 478.05 160.301 478.069 160.22C478.078 160.179 478.087 160.153 478.093 160.136C478.099 160.12 478.103 160.113 478.103 160.113C478.103 160.113 478.101 160.116 478.097 160.121C478.093 160.126 478.09 160.13 478.089 160.131C478.085 160.134 478.105 160.114 478.17 160.082L475.486 154.715C474.395 155.261 473.476 156.086 472.858 157.199C472.254 158.286 472.031 159.476 472.031 160.633H478.031ZM478.17 160.082C478.961 159.686 479.86 159.451 480.906 159.408L480.656 153.413C478.828 153.489 477.091 153.913 475.486 154.715L478.17 160.082ZM480.901 159.408C482.958 159.325 484.864 158.697 486.545 157.52L483.104 152.605C482.389 153.105 481.6 153.375 480.661 153.413L480.901 159.408ZM486.624 157.463C488.783 155.843 489.621 153.41 489.621 150.84H483.621C483.621 152.103 483.261 152.485 483.024 152.662L486.624 157.463ZM489.621 150.84V106.457H483.621V150.84H489.621ZM489.621 106.457C489.621 103.695 489.453 101.319 489.069 99.3999C488.707 97.589 488.061 95.6885 486.716 94.4042L482.573 98.7443C482.545 98.7178 482.889 99.0933 483.185 100.577C483.46 101.952 483.621 103.889 483.621 106.457H489.621ZM486.766 94.4529C485.421 93.1083 483.996 91.9515 482.524 91.363L480.296 96.9339C480.622 97.0641 481.352 97.5245 482.523 98.6955L486.766 94.4529ZM482.592 91.391C481.574 90.955 480.078 90.464 478.204 89.9197L476.531 95.6818C478.37 96.2157 479.569 96.6232 480.228 96.9059L482.592 91.391ZM478.204 89.9197C476.425 89.4034 475.042 88.9093 474.016 88.4478L471.554 93.9194C472.924 94.536 474.596 95.12 476.531 95.6818L478.204 89.9197ZM474.069 88.4724C473.843 88.3651 473.874 88.3262 473.958 88.4464C474 88.5058 474.035 88.5771 474.057 88.6496C474.078 88.7198 474.078 88.7613 474.078 88.7578H468.078C468.078 89.8562 468.379 90.9436 469.051 91.8993C469.705 92.8281 470.589 93.463 471.501 93.8948L474.069 88.4724ZM474.078 88.7578C474.078 88.3043 474.204 87.9674 474.52 87.615C474.892 87.1997 475.619 86.6756 476.953 86.1789C479.661 85.1712 484.057 84.5703 490.395 84.5703V78.5703C483.855 78.5703 478.592 79.1673 474.861 80.5555C472.977 81.2567 471.289 82.23 470.051 83.6115C468.757 85.056 468.078 86.8155 468.078 88.7578H474.078ZM490.395 84.5703C492.974 84.5703 494.9 84.8005 496.261 85.1793C497.645 85.5644 498.158 86.0207 498.327 86.2453L503.127 82.6453C501.858 80.9533 499.93 79.972 497.87 79.3989C495.787 78.8193 493.265 78.5703 490.395 78.5703V84.5703ZM498.391 86.3286C498.649 86.6485 499.105 87.5762 499.455 89.6044C499.789 91.5422 499.973 94.1474 499.973 97.4727H505.973C505.973 93.9698 505.782 90.9897 505.368 88.585C504.969 86.2708 504.301 84.0989 503.062 82.5621L498.391 86.3286ZM505.763 98.5756C507.565 94.0161 510.502 90.4777 514.631 87.8841L511.439 82.8034C506.224 86.0795 502.453 90.6271 500.183 96.3697L505.763 98.5756ZM514.616 87.8932C518.938 85.2124 523.219 83.9414 527.5 83.9414V77.9414C521.958 77.9414 516.595 79.6053 511.454 82.7943L514.616 87.8932ZM527.5 83.9414C532.046 83.9414 535.484 84.926 538.033 86.6574L541.404 81.6941C537.605 79.1131 532.896 77.9414 527.5 77.9414V83.9414ZM538.087 86.6932C540.637 88.346 541.57 90.1704 541.57 92.2617H547.57C547.57 87.7645 545.269 84.1982 541.35 81.6583L538.087 86.6932ZM541.57 92.2617C541.57 94.7815 540.786 96.5579 539.368 97.8954L543.484 102.261C546.258 99.6452 547.57 96.2107 547.57 92.2617H541.57ZM539.401 97.864C537.902 99.235 536.066 99.9531 533.699 99.9531V105.953C537.442 105.953 540.757 104.755 543.45 102.292L539.401 97.864ZM533.699 99.9531C531.205 99.9531 529.206 99.3042 527.561 98.104L524.025 102.951C526.812 104.985 530.084 105.953 533.699 105.953V99.9531ZM527.593 98.1273C525.975 96.914 524.964 95.3983 524.477 93.4948L518.664 94.9818C519.495 98.2293 521.298 100.906 523.993 102.927L527.593 98.1273ZM522.026 91.2732C520.39 91.0215 518.937 90.8789 517.707 90.8789V96.8789C518.514 96.8789 519.636 96.9759 521.114 97.2034L522.026 91.2732ZM517.707 90.8789C514.752 90.8789 512.057 91.7445 509.749 93.5144C507.482 95.2533 505.751 97.7394 504.444 100.747C501.859 106.695 500.691 115.256 500.691 126.133H506.691C506.691 115.507 507.86 107.941 509.947 103.138C510.976 100.77 512.164 99.224 513.401 98.2751C514.598 97.3573 515.99 96.8789 517.707 96.8789V90.8789ZM500.691 126.133V150.84H506.691V126.133H500.691ZM500.691 150.84C500.691 153.132 501.338 155.343 503.042 156.993C504.698 158.597 506.932 159.259 509.254 159.404L509.629 153.416C508.117 153.322 507.477 152.935 507.216 152.683C507.003 152.476 506.691 152.021 506.691 150.84H500.691ZM509.303 159.407C510.959 159.483 511.696 159.836 511.969 160.051C512.095 160.149 512.281 160.308 512.281 160.992H518.281C518.281 158.801 517.494 156.759 515.673 155.33C514 154.017 511.818 153.517 509.58 153.413L509.303 159.407ZM512.281 160.992C512.281 162.071 512.001 162.646 511.684 163.005C511.336 163.4 510.645 163.868 509.255 164.17L510.526 170.034C512.73 169.556 514.734 168.617 516.183 166.975C517.663 165.298 518.281 163.207 518.281 160.992H512.281ZM509.253 164.17C506.803 164.703 503.274 165 498.57 165V171C503.45 171 507.468 170.698 510.528 170.033L509.253 164.17ZM567.301 47.8789L569.314 50.1035L569.316 50.1011L567.301 47.8789ZM584.461 47.1602L582.809 49.6645L582.821 49.6724L582.833 49.6803L584.461 47.1602ZM585.18 62.2539L587.123 64.5397L587.139 64.5258L587.155 64.5116L585.18 62.2539ZM567.301 62.4336L565.483 64.8199L565.496 64.8302L565.51 64.8403L567.301 62.4336ZM582.305 168V165H582.287L582.27 165L582.305 168ZM574.578 168.09V171.09H574.596L574.613 171.09L574.578 168.09ZM560.023 164.496L562.395 162.658L562.391 162.654L560.023 164.496ZM564.516 156.41L564.396 153.413L564.391 153.413L564.516 156.41ZM568.559 155.062L570.279 157.52L570.319 157.492L570.359 157.463L568.559 155.062ZM563.977 93.6992L563.552 96.6691L563.617 96.6783L563.682 96.6847L563.977 93.6992ZM560.922 93.4297L560.334 96.3714L560.625 96.4297H560.922V93.4297ZM559.754 93.25L558.93 96.1346L559.152 96.1981L559.382 96.2268L559.754 93.25ZM558.766 92.8906L557.102 95.3868L557.257 95.4904L557.424 95.5739L558.766 92.8906ZM558.137 92.4414L559.937 90.0414L559.909 90.0205L559.88 90.0002L558.137 92.4414ZM560.203 85.5234L558.319 83.1888L558.301 83.2037L558.283 83.2188L560.203 85.5234ZM583.113 82.0195L581.845 84.7381L581.878 84.7534L581.911 84.768L583.113 82.0195ZM585.539 83.3672L583.775 85.7934L583.824 85.8294L583.875 85.8633L585.539 83.3672ZM593.176 156.41L592.989 159.404L593.013 159.406L593.037 159.407L593.176 156.41ZM593.625 167.102L592.99 164.17L592.988 164.17L593.625 167.102ZM566.527 55.2461C566.527 53.6866 567.235 51.9845 569.314 50.1035L565.288 45.6543C562.336 48.3254 560.527 51.5347 560.527 55.2461H566.527ZM569.316 50.1011C571.435 48.1798 573.525 47.375 575.656 47.375V41.375C571.798 41.375 568.318 42.9061 565.285 45.6567L569.316 50.1011ZM575.656 47.375C578.063 47.375 580.431 48.0961 582.809 49.6645L586.113 44.6558C582.86 42.5107 579.359 41.375 575.656 41.375V47.375ZM582.833 49.6803C584.974 51.063 585.773 52.628 585.773 54.5273H591.773C591.773 50.3173 589.698 46.9709 586.089 44.64L582.833 49.6803ZM585.773 54.5273C585.773 56.6762 584.98 58.4421 583.204 59.9962L587.155 64.5116C590.171 61.873 591.773 58.4879 591.773 54.5273H585.773ZM583.237 59.9681C581.441 61.4943 579.217 62.3086 576.375 62.3086V68.3086C580.481 68.3086 584.126 67.0865 587.123 64.5397L583.237 59.9681ZM576.375 62.3086C573.49 62.3086 571.106 61.5261 569.092 60.0269L565.51 64.8403C568.646 67.1744 572.312 68.3086 576.375 68.3086V62.3086ZM569.119 60.0473C567.262 58.6327 566.527 57.082 566.527 55.2461H560.527C560.527 59.1601 562.308 62.4011 565.483 64.8199L569.119 60.0473ZM582.27 165L574.543 165.09L574.613 171.09L582.34 171L582.27 165ZM574.578 165.09C570.777 165.09 567.87 164.797 565.774 164.279C563.612 163.745 562.716 163.073 562.395 162.658L557.652 166.334C559.188 168.315 561.645 169.44 564.336 170.104C567.09 170.784 570.533 171.09 574.578 171.09V165.09ZM562.391 162.654C562.003 162.154 561.766 161.531 561.766 160.633H555.766C555.766 162.729 556.367 164.682 557.655 166.338L562.391 162.654ZM561.766 160.633C561.766 160.434 561.785 160.301 561.803 160.22C561.812 160.179 561.821 160.153 561.827 160.136C561.833 160.12 561.837 160.113 561.837 160.113C561.837 160.113 561.836 160.116 561.832 160.121C561.828 160.126 561.824 160.13 561.823 160.131C561.82 160.134 561.839 160.114 561.904 160.082L559.221 154.715C558.13 155.261 557.211 156.086 556.592 157.199C555.988 158.286 555.766 159.476 555.766 160.633H561.766ZM561.904 160.082C562.696 159.686 563.594 159.451 564.641 159.408L564.391 153.413C562.562 153.489 560.825 153.913 559.221 154.715L561.904 160.082ZM564.636 159.408C566.692 159.325 568.598 158.697 570.279 157.52L566.838 152.605C566.123 153.105 565.334 153.375 564.396 153.413L564.636 159.408ZM570.359 157.463C572.518 155.843 573.355 153.41 573.355 150.84H567.355C567.355 152.103 566.995 152.485 566.759 152.662L570.359 157.463ZM573.355 150.84V102.504H567.355V150.84H573.355ZM573.355 102.504C573.355 99.4478 572.769 96.6335 571.19 94.4548C569.532 92.1663 567.084 90.991 564.271 90.7137L563.682 96.6847C565.122 96.8267 565.863 97.3285 566.331 97.9749C566.879 98.731 567.355 100.11 567.355 102.504H573.355ZM564.401 90.7294C563.911 90.6594 563.316 90.5941 562.631 90.5319L562.088 96.5072C562.72 96.5647 563.204 96.6192 563.552 96.6691L564.401 90.7294ZM562.631 90.5319C561.963 90.4711 561.368 90.4297 560.922 90.4297V96.4297C561.075 96.4297 561.438 96.4482 562.088 96.5072L562.631 90.5319ZM561.51 90.4879C561.11 90.408 560.641 90.3376 560.126 90.2732L559.382 96.2268C559.825 96.2822 560.134 96.3316 560.334 96.3714L561.51 90.4879ZM560.578 90.3654C560.421 90.3205 560.302 90.2818 560.218 90.2509C560.13 90.2191 560.099 90.203 560.107 90.2073L557.424 95.5739C557.9 95.8118 558.428 95.9913 558.93 96.1346L560.578 90.3654ZM560.43 90.3945C560.31 90.3146 560.147 90.1995 559.937 90.0414L556.337 94.8414C556.605 95.0427 556.862 95.227 557.102 95.3868L560.43 90.3945ZM559.88 90.0002C560.222 90.2443 560.404 90.5148 560.487 90.6647C560.568 90.8108 560.584 90.8949 560.575 90.8603C560.568 90.8315 560.55 90.7426 560.534 90.5754C560.518 90.4112 560.508 90.197 560.508 89.9258H554.508C554.508 90.7333 554.566 91.5607 554.755 92.3155C554.924 92.9944 555.322 94.1176 556.393 94.8826L559.88 90.0002ZM560.508 89.9258C560.508 89.811 560.589 89.1071 562.124 87.8281L558.283 83.2188C556.224 84.9346 554.508 87.1655 554.508 89.9258H560.508ZM562.087 87.858C564.827 85.6471 568.649 84.3906 573.859 84.3906V78.3906C567.69 78.3906 562.408 79.8894 558.319 83.1888L562.087 87.858ZM573.859 84.3906C576.467 84.3906 578.479 84.4428 579.923 84.5409C580.646 84.5901 581.185 84.6481 581.562 84.7077C582.006 84.7779 582.02 84.8199 581.845 84.7381L584.382 79.301C583.757 79.0096 583.048 78.8681 582.497 78.7811C581.879 78.6834 581.148 78.6104 580.329 78.5548C578.689 78.4432 576.523 78.3906 573.859 78.3906V84.3906ZM581.911 84.768C582.724 85.1236 583.332 85.4716 583.775 85.7934L587.304 80.941C586.428 80.3044 585.42 79.754 584.316 79.2711L581.911 84.768ZM583.875 85.8633C583.914 85.8894 584.426 86.2241 584.426 88.1289H590.426C590.426 85.3618 589.68 82.522 587.203 80.871L583.875 85.8633ZM584.426 88.1289V150.84H590.426V88.1289H584.426ZM584.426 150.84C584.426 153.132 585.073 155.343 586.776 156.993C588.432 158.597 590.666 159.259 592.989 159.404L593.363 153.416C591.852 153.322 591.211 152.935 590.951 152.683C590.737 152.476 590.426 152.021 590.426 150.84H584.426ZM593.037 159.407C594.693 159.483 595.431 159.836 595.704 160.051C595.83 160.149 596.016 160.308 596.016 160.992H602.016C602.016 158.801 601.228 156.759 599.408 155.33C597.734 154.017 595.552 153.517 593.314 153.413L593.037 159.407ZM596.016 160.992C596.016 162.071 595.735 162.646 595.418 163.005C595.07 163.4 594.379 163.868 592.99 164.17L594.26 170.034C596.464 169.556 598.469 168.617 599.917 166.975C601.397 165.298 602.016 163.207 602.016 160.992H596.016ZM592.988 164.17C590.537 164.703 587.009 165 582.305 165V171C587.184 171 591.202 170.698 594.262 170.033L592.988 164.17ZM654.898 132.781L655.736 129.9L655.733 129.9L654.898 132.781ZM646.633 130.445L647.436 127.555L647.422 127.551L647.408 127.547L646.633 130.445ZM634.414 126.762L635.528 123.976L635.512 123.97L635.495 123.963L634.414 126.762ZM625.34 86.8711L623.635 84.4029L623.624 84.4102L625.34 86.8711ZM674.574 84.9844L673.42 87.7536L673.423 87.7549L674.574 84.9844ZM684.008 91.7227L681.703 93.6432L681.715 93.6572L681.727 93.6711L684.008 91.7227ZM683.918 108.164L682.136 105.75L682.122 105.761L682.109 105.771L683.918 108.164ZM670.891 110.23L669.268 112.754L669.371 112.82L669.479 112.878L670.891 110.23ZM637.918 92.7109L639.437 95.2978L639.452 95.2889L639.467 95.2798L637.918 92.7109ZM649.867 114.812L649.057 117.701L649.087 117.709L649.118 117.717L649.867 114.812ZM656.605 116.609L655.816 119.504L655.847 119.512L655.878 119.52L656.605 116.609ZM663.883 118.676L662.957 121.529L662.992 121.541L663.028 121.551L663.883 118.676ZM670.801 121.102L669.687 123.887L669.728 123.904L669.77 123.919L670.801 121.102ZM685.086 129.547L682.928 131.631L682.938 131.641L682.948 131.652L685.086 129.547ZM685.266 158.387L687.452 160.441L687.459 160.433L687.466 160.426L685.266 158.387ZM627.586 165.844L626.486 168.635L626.494 168.638L626.502 168.641L627.586 165.844ZM617.434 143.383L619.375 145.67L619.394 145.653L619.414 145.636L617.434 143.383ZM630.551 143.113L628.548 145.347L628.567 145.364L628.586 145.38L630.551 143.113ZM632.617 156.32L629.654 155.849L629.267 158.284L631.581 159.136L632.617 156.32ZM652.922 162.824C659.869 162.824 665.584 161.776 669.651 159.282C673.958 156.64 676.137 152.544 676.137 147.426H670.137C670.137 150.573 668.946 152.676 666.515 154.167C663.843 155.806 659.451 156.824 652.922 156.824V162.824ZM676.137 147.426C676.137 143.178 674.009 139.607 670.455 136.754C666.975 133.959 661.987 131.717 655.736 129.9L654.061 135.662C659.969 137.379 664.1 139.345 666.699 141.432C669.225 143.46 670.137 145.445 670.137 147.426H676.137ZM655.733 129.9C653.443 129.237 650.677 128.455 647.436 127.555L645.83 133.336C649.058 134.232 651.802 135.008 654.064 135.663L655.733 129.9ZM647.408 127.547C641.339 125.925 637.434 124.739 635.528 123.976L633.3 129.547C635.587 130.462 639.827 131.731 645.858 133.344L647.408 127.547ZM635.495 123.963C630.619 122.079 626.543 119.36 623.215 115.814L618.84 119.92C622.819 124.161 627.667 127.371 633.333 129.56L635.495 123.963ZM623.215 115.814C620.082 112.476 618.547 108.598 618.547 104.031H612.547C612.547 110.126 614.665 115.472 618.84 119.92L623.215 115.814ZM618.547 104.031C618.547 98.2877 621.187 93.4236 627.056 89.332L623.624 84.4102C616.435 89.4228 612.547 95.9987 612.547 104.031H618.547ZM627.045 89.3393C633.056 85.1863 640.374 83.043 649.148 83.043V77.043C639.355 77.043 630.801 79.4517 623.635 84.4029L627.045 89.3393ZM649.148 83.043C657.819 83.043 665.9 84.6201 673.42 87.7536L675.728 82.2151C667.436 78.7601 658.566 77.043 649.148 77.043V83.043ZM673.423 87.7549C676.926 89.2099 679.655 91.1855 681.703 93.6432L686.312 89.8021C683.569 86.5098 680.009 83.9932 675.725 82.2139L673.423 87.7549ZM681.727 93.6711C683.822 96.124 684.691 98.4514 684.691 100.707H690.691C690.691 96.7335 689.105 93.0713 686.289 89.7742L681.727 93.6711ZM684.691 100.707C684.691 102.865 683.889 104.457 682.136 105.75L685.7 110.578C688.978 108.158 690.691 104.778 690.691 100.707H684.691ZM682.109 105.771C680.096 107.293 678.143 107.949 676.191 107.949V113.949C679.631 113.949 682.828 112.749 685.727 110.557L682.109 105.771ZM676.191 107.949C674.951 107.949 673.996 107.892 673.293 107.797C672.538 107.694 672.286 107.575 672.302 107.583L669.479 112.878C670.394 113.366 671.474 113.605 672.487 113.742C673.55 113.887 674.796 113.949 676.191 113.949V107.949ZM672.513 107.707C672.794 107.888 672.829 108.079 672.779 107.937C672.719 107.767 672.633 107.369 672.633 106.637H666.633C666.633 108.664 667.042 111.323 669.268 112.754L672.513 107.707ZM672.633 106.637C672.633 100.347 670.954 95.0901 667.085 91.4475C663.25 87.837 657.773 86.2969 651.215 86.2969V92.2969C656.935 92.2969 660.668 93.6467 662.972 95.8161C665.242 97.9535 666.633 101.367 666.633 106.637H672.633ZM651.215 86.2969C645.664 86.2969 640.678 87.5425 636.368 90.1421L639.467 95.2798C642.705 93.3273 646.584 92.2969 651.215 92.2969V86.2969ZM636.399 90.1241C631.942 92.7416 629.258 96.5223 629.258 101.426H635.258C635.258 99.1417 636.347 97.1126 639.437 95.2978L636.399 90.1241ZM629.258 101.426C629.258 105.455 631.415 108.776 634.845 111.383C638.213 113.944 643.03 116.01 649.057 117.701L650.678 111.924C644.965 110.321 640.977 108.508 638.476 106.607C636.036 104.752 635.258 103.027 635.258 101.426H629.258ZM649.118 117.717C650.957 118.192 653.189 118.787 655.816 119.504L657.395 113.715C654.751 112.994 652.491 112.391 650.617 111.908L649.118 117.717ZM655.878 119.52C658.457 120.165 660.816 120.835 662.957 121.529L664.808 115.822C662.517 115.079 660.024 114.372 657.333 113.699L655.878 119.52ZM663.028 121.551C665.147 122.181 667.366 122.959 669.687 123.887L671.915 118.316C669.444 117.328 667.051 116.488 664.738 115.8L663.028 121.551ZM669.77 123.919C672.056 124.755 674.488 125.883 677.07 127.318L679.984 122.073C677.176 120.513 674.457 119.245 671.832 118.284L669.77 123.919ZM677.07 127.318C679.575 128.709 681.504 130.156 682.928 131.631L687.244 127.463C685.313 125.463 682.871 123.676 679.984 122.073L677.07 127.318ZM682.948 131.652C686.28 135.035 687.926 139.066 687.926 143.922H693.926C693.926 137.517 691.678 131.965 687.223 127.442L682.948 131.652ZM687.926 143.922C687.926 148.739 686.323 152.832 683.065 156.348L687.466 160.426C691.755 155.796 693.926 150.246 693.926 143.922H687.926ZM683.08 156.332C676.311 163.533 666.421 167.336 652.922 167.336V173.336C667.574 173.336 679.246 169.172 687.452 160.441L683.08 156.332ZM652.922 167.336C644.089 167.336 636.016 165.894 628.67 163.047L626.502 168.641C634.609 171.783 643.426 173.336 652.922 173.336V167.336ZM628.686 163.053C625.107 161.643 622.358 159.743 620.326 157.406L615.799 161.344C618.559 164.518 622.158 166.93 626.486 168.635L628.686 163.053ZM620.326 157.406C618.319 155.098 617.469 152.84 617.469 150.57H611.469C611.469 154.53 613.014 158.142 615.799 161.344L620.326 157.406ZM617.469 150.57C617.469 148.142 618.206 146.662 619.375 145.67L615.493 141.095C612.708 143.458 611.469 146.77 611.469 150.57H617.469ZM619.414 145.636C620.871 144.356 622.421 143.777 624.172 143.777V137.777C620.892 137.777 617.95 138.935 615.453 141.129L619.414 145.636ZM624.172 143.777C626.011 143.777 627.407 144.324 628.548 145.347L632.553 140.88C630.221 138.788 627.364 137.777 624.172 137.777V143.777ZM628.586 145.38C629.739 146.38 630.246 147.505 630.246 148.953H636.246C636.246 145.729 634.956 142.962 632.516 140.846L628.586 145.38ZM630.246 148.953C630.246 151.047 630.053 153.344 629.654 155.849L635.58 156.792C636.02 154.026 636.246 151.411 636.246 148.953H630.246ZM631.581 159.136C638.282 161.601 645.403 162.824 652.922 162.824V156.824C646.066 156.824 639.65 155.711 633.653 153.505L631.581 159.136Z" fill="#2F1266" mask="url(#path-1-outside-1_1_35)"/>
</g>
<defs>
<clipPath id="clip0_1_35">
<rect width="780" height="221" fill="white"/>
</clipPath>
</defs>
</svg>
